PathFileType   4   (X/Y/Z)
DataRate	CameraRate	NumFrames	NumMarkers	Units	OrigDataRate	OrigDataStartFrame	OrigNumFrames
120.0	120.0	8	37	mm	120.0	1	105
Frame#	Time	midhip	hip_r	hip_l	knee_r	knee_l	ankle_r	ankle_l	midasis	asis_r	asis_l	psis_r	psis_l	epicondLat_r	epicondLat_l	epicondMed_r	epicondMed_l	malleolusLat_r	malleolusLat_l	malleolusMedv_r	malleolusMedv_l	neck	subclavicle_r	subclavicle_l	sternalnotch	xyphoidprocess	thighwand_r	thighwand_l	upperleg1_r	upperleg1_l	upperleg2_r	upperleg2_l	shankwand_r	shankwand_l	lowerleg1_r	lowerleg1_l	toe_r	toe_l
 	 	X1	Y1	Z1	X2	Y2	Z2	X3	Y3	Z3	X4	Y4	Z4	X5	Y5	Z5	X6	Y6	Z6	X7	Y7	Z7	X8	Y8	Z8	X9	Y9	Z9	X10	Y10	Z10	X11	Y11	Z11	X12	Y12	Z12	X13	Y13	Z13	X14	Y14	Z14	X15	Y15	Z15	X16	Y16	Z16	X17	Y17	Z17	X18	Y18	Z18	X19	Y19	Z19	X20	Y20	Z20	X21	Y21	Z21	X22	Y22	Z22	X23	Y23	Z23	X24	Y24	Z24	X25	Y25	Z25	X26	Y26	Z26	X27	Y27	Z27	X28	Y28	Z28	X29	Y29	Z29	X30	Y30	Z30	X31	Y31	Z31	X32	Y32	Z32	X33	Y33	Z33	X34	Y34	Z34	X35	Y35	Z35	X36	Y36	Z36	X37	Y37	Z37

	1	0.10833	499.529	711.868	-226.841	491.724	713.436	-160.321	479.716	702.888	-289.652	636.951	401.523	-203.564	391.940	391.076	-307.030	657.636	66.399	-223.164	124.996	151.734	-316.392	557.892	774.027	-237.059	566.984	782.013	-139.137	548.800	766.041	-334.981	403.541	822.298	-193.513	397.864	818.153	-248.425	648.804	399.601	-149.890	381.780	396.902	-360.257	630.430	402.368	-245.580	400.647	363.533	-254.380	657.860	64.223	-185.728	118.109	160.792	-351.598	663.706	67.221	-248.171	124.769	152.651	-286.286	406.095	1179.101	-246.752	517.993	1132.828	-194.315	523.257	1135.265	-270.643	506.293	1131.152	-234.959	543.770	1052.740	-232.467	704.821	548.572	-100.759	568.753	476.430	-338.584	606.549	568.055	-111.220	509.099	550.511	-355.391	638.069	492.306	-135.088	477.931	468.756	-351.151	654.311	167.191	-103.403	216.374	239.310	-426.012	648.174	137.668	-180.783	179.667	217.668	-352.313	757.295	37.086	-201.913	115.596	47.361	-308.122
	2	0.11667	511.456	713.193	-225.082	503.302	714.887	-158.970	490.971	703.781	-288.225	643.814	401.800	-203.473	414.592	388.485	-307.051	658.380	66.265	-223.249	144.011	155.965	-317.111	569.336	775.081	-236.135	578.685	783.502	-138.138	559.987	766.661	-334.132	415.309	823.745	-192.594	409.549	819.075	-247.528	655.284	399.309	-149.740	404.571	394.094	-360.327	637.950	402.252	-245.468	424.559	359.487	-254.456	658.083	64.046	-185.816	137.325	165.267	-352.293	663.943	66.997	-248.287	142.790	157.219	-286.803	418.277	1180.687	-245.950	530.232	1134.271	-193.677	535.723	1136.634	-269.940	518.650	1132.570	-234.328	556.035	1054.121	-231.655	713.421	546.490	-99.260	588.629	478.880	-337.442	615.484	567.501	-110.480	526.319	550.796	-354.539	645.972	491.591	-134.416	498.265	467.689	-350.594	655.432	167.075	-103.530	236.701	241.456	-426.456	649.511	137.721	-180.937	200.050	220.088	-352.794	757.518	36.843	-202.134	126.006	51.779	-308.846
	3	0.12500	522.991	714.556	-223.214	514.390	716.420	-157.964	501.748	704.862	-287.149	649.926	401.964	-203.116	437.676	386.581	-306.938	659.078	66.161	-223.221	163.846	160.618	-317.706	580.351	776.220	-235.497	589.951	784.996	-137.399	570.752	767.443	-333.594	426.867	825.392	-191.637	421.004	820.178	-246.512	661.023	399.024	-149.328	427.672	391.909	-360.246	646.658	403.022	-245.540	448.534	356.594	-253.601	658.167	63.896	-185.801	157.480	170.010	-352.923	664.108	66.848	-248.309	161.728	162.551	-287.147	430.431	1182.452	-245.158	542.695	1135.818	-193.177	548.126	1138.134	-269.371	531.077	1134.110	-233.782	568.373	1055.619	-231.097	721.489	544.630	-97.706	608.407	481.909	-336.642	623.481	567.365	-109.343	543.368	551.584	-353.801	653.987	491.237	-133.699	518.222	467.154	-349.794	656.004	166.909	-103.470	258.142	243.683	-426.744	650.347	137.532	-181.096	221.421	222.739	-353.172	757.637	36.659	-202.191	139.347	56.760	-309.917
	4	0.13333	534.146	716.214	-221.095	525.382	718.101	-157.123	512.287	706.129	-286.225	655.294	402.023	-202.481	461.066	385.411	-306.724	659.639	66.072	-223.088	184.363	165.572	-318.151	591.177	777.534	-235.078	601.141	786.643	-136.846	581.213	768.424	-333.310	437.912	827.291	-190.752	432.078	821.497	-245.520	666.106	398.743	-148.654	450.989	390.429	-360.049	654.910	403.917	-245.322	472.437	353.829	-255.797	658.143	63.759	-185.690	178.423	174.883	-353.464	664.284	66.755	-248.218	181.587	167.925	-287.404	442.427	1184.375	-244.401	554.766	1137.386	-192.852	559.809	1139.665	-269.045	542.933	1135.707	-233.381	579.980	1057.092	-230.869	729.131	543.100	-96.237	628.007	485.481	-336.066	631.686	567.638	-108.142	560.576	552.962	-353.435	661.952	491.140	-132.853	538.836	468.021	-350.366	656.336	166.668	-103.228	280.582	245.919	-426.871	650.963	137.232	-181.138	243.472	225.763	-353.438	757.676	36.519	-202.128	155.932	62.008	-311.355
	5	0.14167	545.133	718.404	-218.776	535.886	719.923	-156.546	522.576	707.606	-285.593	660.010	401.941	-201.588	484.611	385.039	-306.414	659.996	65.984	-222.862	205.451	170.664	-318.436	601.659	779.027	-234.769	611.805	788.416	-136.397	591.513	769.638	-333.141	448.381	829.436	-189.984	442.770	823.044	-244.650	670.652	398.468	-147.739	474.433	389.679	-359.754	658.880	404.306	-244.275	496.714	351.639	-256.970	658.045	63.617	-185.488	200.021	179.724	-353.897	664.442	66.765	-247.993	202.358	172.783	-287.669	454.364	1186.428	-243.650	565.969	1138.902	-192.568	571.593	1141.265	-268.823	554.430	1137.343	-233.238	591.051	1058.534	-230.567	736.427	541.925	-94.918	647.345	489.596	-335.589	639.509	568.249	-106.938	577.023	554.821	-352.938	667.925	491.334	-131.676	558.795	469.100	-350.505	656.708	166.350	-102.814	303.851	248.099	-426.850	651.649	136.991	-180.875	266.019	229.163	-353.617	757.659	36.420	-201.972	175.680	67.055	-313.099
	6	0.15000	556.061	721.055	-216.590	546.324	721.922	-155.996	532.817	709.283	-284.992	664.219	401.808	-200.474	508.211	385.417	-306.026	660.151	65.903	-222.561	227.076	175.713	-318.565	612.048	780.752	-234.466	622.365	790.405	-135.942	601.731	771.099	-332.990	458.476	831.743	-189.360	453.178	824.801	-243.935	674.778	398.213	-146.617	497.915	389.665	-359.376	663.358	404.599	-242.882	519.840	351.681	-256.551	657.904	63.474	-185.207	222.199	184.381	-354.203	664.537	66.880	-247.631	224.170	177.151	-287.932	466.331	1188.624	-242.904	578.633	1140.756	-192.356	583.123	1142.961	-268.674	566.482	1139.157	-232.838	602.898	1060.240	-230.566	743.392	541.027	-93.706	666.349	494.307	-335.095	646.804	569.069	-105.787	593.569	557.350	-352.672	673.898	491.611	-130.415	578.127	470.933	-350.155	657.261	165.979	-102.245	327.743	250.173	-426.718	652.316	136.925	-180.289	288.974	232.674	-353.702	757.596	36.353	-201.710	198.368	71.653	-315.063
	7	0.15833	566.422	723.522	-214.628	556.433	724.030	-155.557	542.979	711.167	-284.536	668.055	401.655	-199.205	531.708	386.557	-305.587	660.153	65.837	-222.197	249.272	180.529	-318.556	622.249	782.657	-234.103	632.541	792.497	-135.443	611.957	772.817	-332.763	468.355	834.132	-188.898	463.412	826.754	-243.372	678.547	397.995	-145.339	521.353	390.377	-358.957	667.338	404.870	-241.148	541.571	354.027	-254.901	657.734	63.337	-184.858	244.952	188.705	-354.382	664.612	67.034	-247.140	246.953	181.140	-288.099	478.181	1190.881	-242.181	590.016	1142.551	-192.571	593.625	1144.594	-268.695	577.380	1140.972	-232.784	613.245	1061.796	-230.801	750.008	540.274	-92.490	685.015	499.651	-334.442	654.208	570.061	-104.558	610.850	560.541	-352.720	679.726	492.012	-128.966	597.338	473.636	-349.450	657.964	165.598	-101.545	352.061	252.108	-426.514	652.928	136.967	-179.542	312.406	236.032	-353.672	757.498	36.304	-201.347	223.517	75.605	-317.134
	8	0.16667	576.001	725.435	-212.939	566.619	726.227	-155.019	553.170	713.223	-283.985	671.678	401.574	-197.858	554.995	388.360	-305.154	660.098	65.784	-221.783	272.119	184.866	-318.439	632.486	784.714	-233.625	642.793	794.681	-134.792	622.179	774.748	-332.459	478.173	836.547	-188.545	473.575	828.884	-242.931	682.030	397.813	-143.972	544.682	391.782	-358.560	666.678	405.055	-238.936	564.120	355.966	-253.834	657.543	63.213	-184.459	268.315	192.504	-354.442	664.648	67.182	-246.628	270.475	184.700	-288.131	489.855	1193.175	-241.450	603.707	1144.728	-192.281	606.352	1146.627	-268.452	590.570	1143.030	-232.330	626.694	1063.965	-230.640	756.216	539.492	-91.129	703.365	505.637	-333.472	661.673	571.023	-103.178	627.596	564.064	-352.297	683.614	492.444	-127.252	616.674	476.749	-348.689	658.663	165.258	-100.756	376.666	253.872	-426.267	653.575	136.949	-178.845	336.350	239.106	-353.571	757.374	36.264	-200.915	250.575	78.867	-319.114
